<svg width="120" height="32" viewBox="0 0 120 32" fill="none" xmlns="http://www.w3.org/2000/svg">
<g clip-path="url(#clip0_406_5246)">
<path d="M22.7333 21.3318H13.5016L10.3018 10.6647H20.1734C20.6442 10.6647 21.0602 10.9733 21.1951 11.4258L23.755 19.9581C23.9607 20.6415 23.4487 21.3318 22.7333 21.3318Z" fill="url(#paint0_linear_406_5246)"/>
<path d="M13.0877 1.37366L10.2992 10.667H1.06754C0.352138 10.667 -0.159842 9.97905 0.0458642 9.29336L2.60577 0.761114C2.74062 0.310845 3.1566 0 3.62744 0H12.066C12.7814 0 13.2934 0.687974 13.0877 1.37366Z" fill="url(#paint1_linear_406_5246)"/>
<path d="M3.62744 21.3318H13.4991L10.5278 31.2377C10.3929 31.6879 9.97691 31.9988 9.50608 31.9988H1.06754C0.352138 31.9988 -0.159842 31.3108 0.0458642 30.6251L2.60577 22.0929C2.74062 21.6426 3.1566 21.3318 3.62744 21.3318Z" fill="url(#paint2_linear_406_5246)"/>
<path d="M53.188 26.0264C51.4738 26.0264 50.0156 25.679 48.8111 24.9819C47.6065 24.2848 46.6923 23.3705 46.066 22.2369C45.4398 21.1032 45.1289 19.8667 45.1289 18.5296V17.9147C45.1289 16.5411 45.4535 15.2771 46.1072 14.1252C46.7586 12.9732 47.6865 12.0544 48.8911 11.3664C50.0956 10.6807 51.5287 10.3356 53.188 10.3356C54.8474 10.3356 56.2851 10.6784 57.4987 11.3664C58.7124 12.0544 59.6449 12.9732 60.2963 14.1252C60.9477 15.2771 61.2746 16.5388 61.2746 17.9147V18.5296C61.2746 19.869 60.9569 21.1055 60.3238 22.2369C59.6906 23.3705 58.7741 24.2848 57.5787 24.9819C56.3833 25.679 54.9182 26.0264 53.188 26.0264ZM53.188 22.4129C54.42 22.4129 55.3617 22.0152 56.0131 21.222C56.6645 20.4289 56.9913 19.4324 56.9913 18.237C56.9913 17.0416 56.6576 15.9834 55.9879 15.172C55.3182 14.3606 54.3857 13.9537 53.1903 13.9537C51.9949 13.9537 51.067 14.3606 50.4064 15.172C49.7459 15.9857 49.4167 17.0051 49.4167 18.237C49.4167 19.469 49.739 20.4289 50.3813 21.222C51.0235 22.0174 51.9606 22.4129 53.1926 22.4129H53.188Z" fill="black"/>
<path d="M63.0254 25.5167V10.8453H66.4264V15.8257C66.5864 14.1663 67.1007 12.8886 67.9669 11.9972C68.8332 11.1059 70.0148 10.6579 71.5142 10.6579H72.0765V14.3537H71.0045C69.8091 14.3537 68.8926 14.676 68.2595 15.3183C67.6264 15.9605 67.3087 16.8702 67.3087 18.0496V25.519H63.0254V25.5167Z" fill="black"/>
<path d="M79.9735 26.0264C78.7233 26.0264 77.6216 25.8116 76.6662 25.3842C75.7108 24.9568 74.9131 24.3808 74.2709 23.6562C73.6286 22.9317 73.1463 22.1203 72.8241 21.2198C72.5018 20.3192 72.3418 19.3958 72.3418 18.4496V17.9147C72.3418 16.9502 72.5018 16.0131 72.8241 15.1034C73.1463 14.1937 73.6263 13.3801 74.2709 12.6669C74.9131 11.9538 75.6948 11.387 76.6136 10.9664C77.5325 10.5482 78.5998 10.3379 79.8135 10.3379C81.3837 10.3379 82.7094 10.6899 83.7905 11.3961C84.8693 12.1001 85.6944 13.0258 86.2658 14.1663C86.8372 15.3091 87.1229 16.5411 87.1229 17.8622V19.309H76.3851C76.5268 20.3078 76.8902 21.0986 77.4685 21.6792C78.049 22.2597 78.8833 22.55 79.9712 22.55C80.7392 22.55 81.3769 22.4037 81.8866 22.1089C82.3963 21.814 82.7391 21.4346 82.9174 20.9706H86.8532C86.531 22.47 85.7607 23.6882 84.5379 24.6253C83.3151 25.5625 81.7929 26.031 79.9735 26.031V26.0264ZM79.8135 13.8166C78.8855 13.8166 78.1313 14.0795 77.5507 14.6074C76.9702 15.1331 76.5999 15.8874 76.4399 16.8702H83.0271C82.8831 15.8897 82.5403 15.1354 81.9963 14.6074C81.4523 14.0817 80.7255 13.8166 79.8135 13.8166Z" fill="black"/>
<path d="M96.6451 26.0264C94.9308 26.0264 93.4726 25.679 92.2681 24.9819C91.0636 24.2848 90.1493 23.3705 89.523 22.2369C88.8968 21.1032 88.5859 19.8667 88.5859 18.5296V17.9147C88.5859 16.5411 88.9105 15.2771 89.5642 14.1252C90.2156 12.9732 91.1436 12.0544 92.3481 11.3664C93.5526 10.6807 94.9857 10.3356 96.6451 10.3356C98.3044 10.3356 99.7421 10.6784 100.956 11.3664C102.169 12.0544 103.102 12.9732 103.753 14.1252C104.405 15.2771 104.732 16.5388 104.732 17.9147V18.5296C104.732 19.869 104.414 21.1055 103.781 22.2369C103.148 23.3705 102.231 24.2848 101.036 24.9819C99.8404 25.679 98.3753 26.0264 96.6451 26.0264ZM96.6451 22.4129C97.877 22.4129 98.8187 22.0152 99.4701 21.222C100.122 20.4289 100.448 19.4324 100.448 18.237C100.448 17.0416 100.115 15.9834 99.445 15.172C98.7753 14.3606 97.8427 13.9537 96.6473 13.9537C95.452 13.9537 94.524 14.3606 93.8635 15.172C93.2029 15.9857 92.8738 17.0051 92.8738 18.237C92.8738 19.469 93.1961 20.4289 93.8383 21.222C94.4806 22.0174 95.4177 22.4129 96.6496 22.4129H96.6451Z" fill="black"/>
<path d="M106.185 25.5167V10.8453H109.586V14.5937C110.175 11.7915 111.826 10.3904 114.539 10.3904H114.726C116.422 10.3904 117.725 10.9481 118.634 12.0635C119.544 13.1789 119.999 14.8703 119.999 17.1376V25.519H115.716V16.8976C115.716 16.1137 115.483 15.4691 115.019 14.9708C114.555 14.4726 113.931 14.2212 113.144 14.2212C112.358 14.2212 111.693 14.4749 111.204 14.9846C110.712 15.4942 110.468 16.1594 110.468 16.9799V25.5213H106.185V25.5167Z" fill="black"/>
<path d="M43.7031 5.97235H31.9756V25.5168H36.3663V17.645H43.3809V14.004H36.3663V10.6007L35.3789 9.61336H36.3663H43.7031V5.97235Z" fill="black"/>
</g>
<defs>
<linearGradient id="paint0_linear_406_5246" x1="3.90657" y1="-9.74592" x2="24.7126" y2="30.664" gradientUnits="userSpaceOnUse">
<stop stop-color="#00A9B7"/>
<stop offset="0.5" stop-color="#4C32F2"/>
<stop offset="1" stop-color="#9F00BE"/>
</linearGradient>
<linearGradient id="paint1_linear_406_5246" x1="-0.127844" y1="-7.66828" x2="20.6782" y2="32.7416" gradientUnits="userSpaceOnUse">
<stop stop-color="#00A9B7"/>
<stop offset="0.5" stop-color="#4C32F2"/>
<stop offset="1" stop-color="#9F00BE"/>
</linearGradient>
<linearGradient id="paint2_linear_406_5246" x1="-8.50009" y1="-3.35759" x2="12.306" y2="37.0523" gradientUnits="userSpaceOnUse">
<stop stop-color="#00A9B7"/>
<stop offset="0.5" stop-color="#4C32F2"/>
<stop offset="1" stop-color="#9F00BE"/>
</linearGradient>
<clipPath id="clip0_406_5246">
<rect width="120" height="31.9988" fill="white"/>
</clipPath>
</defs>
</svg>
